<svg width="714" height="418" viewBox="0 0 714 418" fill="none" xmlns="http://www.w3.org/2000/svg">
<g filter="url(#filter0_d)">
<rect x="42" y="42" width="630" height="334" fill="white"/>
</g>
<path d="M129.062 92.5H117.5V83.2143C117.5 78.0926 121.648 73.9286 126.75 73.9286H127.906C129.829 73.9286 131.375 72.3761 131.375 70.4464V63.4821C131.375 61.5525 129.829 60 127.906 60H126.75C113.973 60 103.625 70.3884 103.625 83.2143V118.036C103.625 121.881 106.732 125 110.562 125H129.062C132.893 125 136 121.881 136 118.036V99.4643C136 95.6194 132.893 92.5 129.062 92.5ZM87.4375 92.5H75.875V83.2143C75.875 78.0926 80.023 73.9286 85.125 73.9286H86.2812C88.2035 73.9286 89.75 72.3761 89.75 70.4464V63.4821C89.75 61.5525 88.2035 60 86.2812 60H85.125C72.3484 60 62 70.3884 62 83.2143V118.036C62 121.881 65.1074 125 68.9375 125H87.4375C91.2676 125 94.375 121.881 94.375 118.036V99.4643C94.375 95.6194 91.2676 92.5 87.4375 92.5Z" fill="#E1F3FF"/>
<defs>
<filter id="filter0_d" x="0" y="0" width="714" height="418" filterUnits="userSpaceOnUse" color-interpolation-filters="sRGB">
<feFlood flood-opacity="0" result="BackgroundImageFix"/>
<feColorMatrix in="SourceAlpha" type="matrix" values="0 0 0 0 0 0 0 0 0 0 0 0 0 0 0 0 0 0 127 0"/>
<feOffset/>
<feGaussianBlur stdDeviation="21"/>
<feColorMatrix type="matrix" values="0 0 0 0 0.767812 0 0 0 0 0.892125 0 0 0 0 0.975 0 0 0 1 0"/>
<feBlend mode="normal" in2="BackgroundImageFix" result="effect1_dropShadow"/>
<feBlend mode="normal" in="SourceGraphic" in2="effect1_dropShadow" result="shape"/>
</filter>
</defs>
</svg>
