<svg width="74" height="65" viewBox="0 0 74 65" fill="none" xmlns="http://www.w3.org/2000/svg">
<path d="M67.0625 32.5H55.5V23.2143C55.5 18.0926 59.648 13.9286 64.75 13.9286H65.9062C67.8285 13.9286 69.375 12.3761 69.375 10.4464V3.48214C69.375 1.55246 67.8285 0 65.9062 0H64.75C51.9734 0 41.625 10.3884 41.625 23.2143V58.0357C41.625 61.8806 44.7324 65 48.5625 65H67.0625C70.8926 65 74 61.8806 74 58.0357V39.4643C74 35.6194 70.8926 32.5 67.0625 32.5ZM25.4375 32.5H13.875V23.2143C13.875 18.0926 18.023 13.9286 23.125 13.9286H24.2812C26.2035 13.9286 27.75 12.3761 27.75 10.4464V3.48214C27.75 1.55246 26.2035 0 24.2812 0H23.125C10.3484 0 0 10.3884 0 23.2143V58.0357C0 61.8806 3.10742 65 6.9375 65H25.4375C29.2676 65 32.375 61.8806 32.375 58.0357V39.4643C32.375 35.6194 29.2676 32.5 25.4375 32.5Z" fill="#E1F3FF"/>
</svg>
