<svg width="1440" height="724" viewBox="0 0 1440 724" fill="none" xmlns="http://www.w3.org/2000/svg">
<rect width="1440" height="724" fill="#E1F3FF" fill-opacity="0.5"/>
<path d="M299.469 237H265.25V209.571C265.25 194.443 277.526 182.143 292.625 182.143H296.047C301.736 182.143 306.312 177.557 306.312 171.857V151.286C306.312 145.586 301.736 141 296.047 141H292.625C254.813 141 224.188 171.686 224.188 209.571V312.429C224.188 323.786 233.384 333 244.719 333H299.469C310.804 333 320 323.786 320 312.429V257.571C320 246.214 310.804 237 299.469 237ZM176.281 237H142.062V209.571C142.062 194.443 154.338 182.143 169.438 182.143H172.859C178.548 182.143 183.125 177.557 183.125 171.857V151.286C183.125 145.586 178.548 141 172.859 141H169.438C131.626 141 101 171.686 101 209.571V312.429C101 323.786 110.196 333 121.531 333H176.281C187.616 333 196.812 323.786 196.812 312.429V257.571C196.812 246.214 187.616 237 176.281 237Z" fill="#E1F3FF"/>
<path d="M1156.53 237L1190.75 237V264.429C1190.75 279.557 1178.47 291.857 1163.38 291.857H1159.95C1154.26 291.857 1149.69 296.443 1149.69 302.143V322.714C1149.69 328.414 1154.26 333 1159.95 333H1163.38C1201.19 333 1231.81 302.314 1231.81 264.429V161.571C1231.81 150.214 1222.62 141 1211.28 141H1156.53C1145.2 141 1136 150.214 1136 161.571V216.429C1136 227.786 1145.2 237 1156.53 237ZM1279.72 237H1313.94V264.429C1313.94 279.557 1301.66 291.857 1286.56 291.857H1283.14C1277.45 291.857 1272.88 296.443 1272.88 302.143V322.714C1272.88 328.414 1277.45 333 1283.14 333H1286.56C1324.37 333 1355 302.314 1355 264.429V161.571C1355 150.214 1345.8 141 1334.47 141H1279.72C1268.38 141 1259.19 150.214 1259.19 161.571V216.429C1259.19 227.786 1268.38 237 1279.72 237Z" fill="#E1F3FF"/>
</svg>
